<?xml version="1.0" encoding="utf-8"?>
<!-- Generator: Adobe Illustrator 25.3.1, SVG Export Plug-In . SVG Version: 6.00 Build 0)  -->
<svg version="1.1" id="Layer_1" xmlns="http://www.w3.org/2000/svg" xmlns:xlink="http://www.w3.org/1999/xlink" x="0px" y="0px"
	 viewBox="0 0 34 34" style="enable-background:new 0 0 34 34;" xml:space="preserve">
<style type="text/css">
	.st0{fill:#231F20;}
	.st1{fill:#FFFFFF;}
</style>
<g>
	<g>
		<path class="st0" d="M30.5,31.6c-0.1,0.1-0.2,0.1-0.2,0.2c-0.2,0.1-4.1,2.4-7.5,0.8c-2-0.9-3.3-2.9-3.8-5.9
			c-0.3-1.8-0.4-3.5-0.2-5.1c-2-2.1-3.6-4.5-4.1-5.3c-0.4-0.6-0.2-1.4,0.4-1.8c0.6-0.4,1.4-0.2,1.8,0.4c0.7,1.1,1.7,2.4,2.7,3.6
			c0.6-1.5,1.5-2.7,2.6-3.6c1.6-1.2,3.5-1.4,5.1-0.6c2.4,1.2,3.8,4,3.4,6.7c-0.4,2.4-2,4.1-4.3,4.5c-1.6,0.3-3.4-0.5-5-1.7
			c0,0.7,0.1,1.5,0.3,2.4c0.4,2.1,1.2,3.5,2.4,4.1c2.1,1,5.1-0.7,5.1-0.7c0.6-0.4,1.4-0.2,1.7,0.5C31,30.5,30.9,31.2,30.5,31.6z
			 M21.5,20.7c1.6,1.5,3.2,2.6,4.3,2.4c1.7-0.3,2.1-1.7,2.2-2.4c0.2-1.4-0.3-3.2-2-4.1c-0.7-0.4-1.6-0.2-2.4,0.4
			C22.7,17.6,21.9,18.8,21.5,20.7z"/>
	</g>
	<g>
		<path class="st1" d="M2.5,6C1.9,3.8,3.9,1.9,6,2.5l6.6,1.8l6.6,1.8c2.1,0.6,2.8,3.2,1.2,4.8l-4.9,4.8l-4.9,4.8
			c-1.6,1.5-4.2,0.8-4.7-1.3l-1.7-6.6L2.5,6z"/>
		<path class="st0" d="M21.3,11.9l-9.8,9.6c-1.1,1-2.5,1.4-4,1C6.1,22.1,5,21,4.6,19.5L1.2,6.3c-0.4-1.4,0-2.9,1.1-4
			c1.1-1,2.6-1.4,4-1L19.5,5c1.4,0.4,2.5,1.5,2.9,2.9S22.3,10.8,21.3,11.9z M3.7,5.6l3.4,13.3c0.2,0.8,0.8,1,1.1,1.1
			c0.3,0.1,0.9,0.2,1.5-0.4l9.8-9.6c0.6-0.6,0.5-1.2,0.4-1.5c-0.1-0.3-0.3-0.9-1.1-1.1L5.6,3.7C4.9,3.5,4.3,3.9,4.1,4.1
			C3.9,4.3,3.5,4.9,3.7,5.6L3.7,5.6z"/>
	</g>
</g>
</svg>
